<svg width="149" height="27" viewBox="0 0 149 27" fill="none" xmlns="http://www.w3.org/2000/svg">
<path d="M8.05194 13.5767C8.05194 16.6394 8.05194 19.6037 8.05194 22.5668C8.05194 23.8123 8.04069 25.0577 8.06319 26.3032C8.07219 26.8168 7.88996 27.0066 7.40401 26.9995C6.03503 26.9782 4.66606 26.9722 3.29933 26.9995C2.75376 27.0114 2.58616 26.8014 2.58953 26.2368C2.6064 22.2631 2.59966 18.2894 2.59966 14.3157C2.59966 13.5245 2.59966 13.5328 1.86511 13.5542C1.39716 13.5684 0.928086 13.5542 0.459011 13.5542C0.138421 13.5542 -0.00331583 13.3988 5.88062e-05 13.0418C0.0135574 11.7963 0.0135574 10.5508 5.88062e-05 9.30531C5.88062e-05 8.92336 0.124922 8.76204 0.487133 8.77271C0.956208 8.78695 1.42528 8.77271 1.89323 8.77271C2.6154 8.77271 2.60303 8.77866 2.61428 7.99104C2.63003 6.84638 2.60416 5.69458 2.70989 4.55822C2.95174 1.96287 4.80779 0.18481 7.2904 0.102964C8.64026 0.0578893 9.99011 0.047201 11.34 0.000940061C11.8147 -0.0144802 12.0149 0.157519 11.9991 0.686554C11.9684 1.8324 11.9684 2.97904 11.9991 4.12647C12.0126 4.6211 11.8124 4.73499 11.4018 4.73143C10.6909 4.73143 9.97661 4.71718 9.26456 4.77412C8.47715 4.83817 8.08456 5.2818 8.04294 6.10856C8.00695 6.79773 8.02157 7.49046 7.99457 8.18081C7.9777 8.58648 8.11268 8.73714 8.51427 8.7229C9.39505 8.69088 10.277 8.70628 11.1577 8.70984C11.9035 8.70984 11.9361 8.73477 11.8754 9.50104C11.782 10.6801 11.6504 11.8568 11.5571 13.037C11.5256 13.4522 11.3467 13.5767 10.9834 13.5732C10.0317 13.5684 9.08008 13.5767 8.05194 13.5767Z" fill="#4867AA"/>
<path d="M39.9727 7.00796H51.3727V10.464H43.7167V13.92H50.7967V17.376H43.7167V24H39.9727V7.00796Z" fill="#4867AA"/>
<path d="M60.9192 22.536H60.8712C60.4712 23.16 59.9352 23.608 59.2632 23.88C58.6072 24.152 57.9112 24.288 57.1752 24.288C56.6312 24.288 56.1032 24.208 55.5912 24.048C55.0952 23.904 54.6552 23.68 54.2712 23.376C53.8872 23.072 53.5832 22.696 53.3592 22.248C53.1352 21.8 53.0232 21.28 53.0232 20.688C53.0232 20.016 53.1432 19.448 53.3832 18.984C53.6392 18.52 53.9752 18.136 54.3912 17.832C54.8232 17.528 55.3112 17.296 55.8552 17.136C56.3992 16.96 56.9592 16.832 57.5352 16.752C58.1272 16.672 58.7112 16.624 59.2872 16.608C59.8792 16.592 60.4232 16.584 60.9192 16.584C60.9192 15.944 60.6872 15.44 60.2232 15.072C59.7752 14.688 59.2392 14.496 58.6152 14.496C58.0232 14.496 57.4792 14.624 56.9832 14.88C56.5032 15.12 56.0712 15.456 55.6872 15.888L53.7672 13.92C54.4392 13.296 55.2232 12.832 56.1192 12.528C57.0152 12.208 57.9432 12.048 58.9032 12.048C59.9592 12.048 60.8232 12.184 61.4952 12.456C62.1832 12.712 62.7272 13.096 63.1272 13.608C63.5432 14.12 63.8312 14.752 63.9912 15.504C64.1512 16.24 64.2312 17.096 64.2312 18.072V24H60.9192V22.536ZM60.0312 18.888C59.7592 18.888 59.4152 18.904 58.9992 18.936C58.5992 18.952 58.2072 19.016 57.8232 19.128C57.4552 19.24 57.1352 19.408 56.8632 19.632C56.6072 19.856 56.4792 20.168 56.4792 20.568C56.4792 21 56.6632 21.32 57.0312 21.528C57.3992 21.736 57.7832 21.84 58.1832 21.84C58.5352 21.84 58.8712 21.792 59.1912 21.696C59.5272 21.6 59.8232 21.464 60.0792 21.288C60.3352 21.112 60.5352 20.888 60.6792 20.616C60.8392 20.344 60.9192 20.024 60.9192 19.656V18.888H60.0312Z" fill="#4867AA"/>
<path d="M74.3858 16.104C74.2098 15.848 73.9618 15.64 73.6418 15.48C73.3218 15.304 72.9778 15.216 72.6098 15.216C71.6978 15.216 70.9858 15.488 70.4738 16.032C69.9778 16.576 69.7298 17.288 69.7298 18.168C69.7298 19.048 69.9778 19.76 70.4738 20.304C70.9858 20.848 71.6978 21.12 72.6098 21.12C73.0098 21.12 73.3538 21.032 73.6418 20.856C73.9298 20.68 74.1778 20.472 74.3858 20.232L76.7618 22.728C76.2018 23.304 75.5378 23.712 74.7698 23.952C74.0178 24.176 73.2978 24.288 72.6098 24.288C71.7138 24.288 70.8658 24.144 70.0658 23.856C69.2818 23.568 68.5938 23.16 68.0018 22.632C67.4258 22.088 66.9698 21.44 66.6338 20.688C66.2978 19.936 66.1298 19.096 66.1298 18.168C66.1298 17.24 66.2978 16.4 66.6338 15.648C66.9698 14.896 67.4258 14.256 68.0018 13.728C68.5938 13.184 69.2818 12.768 70.0658 12.48C70.8658 12.192 71.7138 12.048 72.6098 12.048C73.2978 12.048 74.0178 12.168 74.7698 12.408C75.5378 12.632 76.2018 13.032 76.7618 13.608L74.3858 16.104Z" fill="#4867AA"/>
<path d="M89.108 21.984C88.532 22.72 87.804 23.288 86.924 23.688C86.044 24.088 85.132 24.288 84.188 24.288C83.292 24.288 82.444 24.144 81.644 23.856C80.86 23.568 80.172 23.16 79.58 22.632C79.004 22.088 78.548 21.44 78.212 20.688C77.876 19.936 77.708 19.096 77.708 18.168C77.708 17.24 77.876 16.4 78.212 15.648C78.548 14.896 79.004 14.256 79.58 13.728C80.172 13.184 80.86 12.768 81.644 12.48C82.444 12.192 83.292 12.048 84.188 12.048C85.02 12.048 85.772 12.192 86.444 12.48C87.132 12.768 87.708 13.184 88.172 13.728C88.652 14.256 89.02 14.896 89.276 15.648C89.532 16.4 89.66 17.24 89.66 18.168V19.296H81.308C81.452 19.984 81.764 20.536 82.244 20.952C82.724 21.352 83.316 21.552 84.02 21.552C84.612 21.552 85.108 21.424 85.508 21.168C85.924 20.896 86.284 20.552 86.588 20.136L89.108 21.984ZM86.06 16.848C86.076 16.24 85.876 15.72 85.46 15.288C85.044 14.856 84.508 14.64 83.852 14.64C83.452 14.64 83.1 14.704 82.796 14.832C82.492 14.96 82.228 15.128 82.004 15.336C81.796 15.528 81.628 15.76 81.5 16.032C81.388 16.288 81.324 16.56 81.308 16.848H86.06Z" fill="#4867AA"/>
<path d="M92.1852 5.85596H95.7852V13.584H95.8332C96.2492 13.024 96.7772 12.632 97.4172 12.408C98.0732 12.168 98.7772 12.048 99.5292 12.048C100.361 12.048 101.105 12.224 101.761 12.576C102.417 12.912 102.969 13.368 103.417 13.944C103.881 14.52 104.233 15.184 104.473 15.936C104.729 16.672 104.857 17.448 104.857 18.264C104.857 19.144 104.721 19.952 104.449 20.688C104.177 21.424 103.785 22.064 103.273 22.608C102.777 23.136 102.177 23.552 101.473 23.856C100.769 24.144 99.9852 24.288 99.1212 24.288C98.7052 24.288 98.3132 24.232 97.9452 24.12C97.5772 24.008 97.2332 23.864 96.9132 23.688C96.6092 23.512 96.3372 23.32 96.0972 23.112C95.8732 22.888 95.6892 22.672 95.5452 22.464H95.4972V24H92.1852V5.85596ZM95.4972 18.168C95.4972 19.048 95.7452 19.76 96.2412 20.304C96.7532 20.848 97.4652 21.12 98.3772 21.12C99.2892 21.12 99.9932 20.848 100.489 20.304C101.001 19.76 101.257 19.048 101.257 18.168C101.257 17.288 101.001 16.576 100.489 16.032C99.9932 15.488 99.2892 15.216 98.3772 15.216C97.4652 15.216 96.7532 15.488 96.2412 16.032C95.7452 16.576 95.4972 17.288 95.4972 18.168Z" fill="#4867AA"/>
<path d="M106.534 18.168C106.534 17.24 106.702 16.4 107.038 15.648C107.374 14.896 107.83 14.256 108.406 13.728C108.998 13.184 109.686 12.768 110.47 12.48C111.27 12.192 112.118 12.048 113.014 12.048C113.91 12.048 114.75 12.192 115.534 12.48C116.334 12.768 117.022 13.184 117.598 13.728C118.19 14.256 118.654 14.896 118.99 15.648C119.326 16.4 119.494 17.24 119.494 18.168C119.494 19.096 119.326 19.936 118.99 20.688C118.654 21.44 118.19 22.088 117.598 22.632C117.022 23.16 116.334 23.568 115.534 23.856C114.75 24.144 113.91 24.288 113.014 24.288C112.118 24.288 111.27 24.144 110.47 23.856C109.686 23.568 108.998 23.16 108.406 22.632C107.83 22.088 107.374 21.44 107.038 20.688C106.702 19.936 106.534 19.096 106.534 18.168ZM110.134 18.168C110.134 19.048 110.382 19.76 110.878 20.304C111.39 20.848 112.102 21.12 113.014 21.12C113.926 21.12 114.63 20.848 115.126 20.304C115.638 19.76 115.894 19.048 115.894 18.168C115.894 17.288 115.638 16.576 115.126 16.032C114.63 15.488 113.926 15.216 113.014 15.216C112.102 15.216 111.39 15.488 110.878 16.032C110.382 16.576 110.134 17.288 110.134 18.168Z" fill="#4867AA"/>
<path d="M121.183 18.168C121.183 17.24 121.351 16.4 121.687 15.648C122.023 14.896 122.479 14.256 123.055 13.728C123.647 13.184 124.335 12.768 125.119 12.48C125.919 12.192 126.767 12.048 127.663 12.048C128.559 12.048 129.399 12.192 130.183 12.48C130.983 12.768 131.671 13.184 132.247 13.728C132.839 14.256 133.303 14.896 133.639 15.648C133.975 16.4 134.143 17.24 134.143 18.168C134.143 19.096 133.975 19.936 133.639 20.688C133.303 21.44 132.839 22.088 132.247 22.632C131.671 23.16 130.983 23.568 130.183 23.856C129.399 24.144 128.559 24.288 127.663 24.288C126.767 24.288 125.919 24.144 125.119 23.856C124.335 23.568 123.647 23.16 123.055 22.632C122.479 22.088 122.023 21.44 121.687 20.688C121.351 19.936 121.183 19.096 121.183 18.168ZM124.783 18.168C124.783 19.048 125.031 19.76 125.527 20.304C126.039 20.848 126.751 21.12 127.663 21.12C128.575 21.12 129.279 20.848 129.775 20.304C130.287 19.76 130.543 19.048 130.543 18.168C130.543 17.288 130.287 16.576 129.775 16.032C129.279 15.488 128.575 15.216 127.663 15.216C126.751 15.216 126.039 15.488 125.527 16.032C125.031 16.576 124.783 17.288 124.783 18.168Z" fill="#4867AA"/>
<path d="M136.263 5.85596H139.863V16.944L143.847 12.336H148.263L143.631 17.592L148.383 24H143.847L139.911 18.096H139.863V24H136.263V5.85596Z" fill="#4867AA"/>
</svg>
