<svg width="141" height="33" viewBox="0 0 141 33" fill="none" xmlns="http://www.w3.org/2000/svg">
<path d="M74.2136 22.8C73.1096 23.376 71.9576 23.792 70.7576 24.048C69.5576 24.304 68.3336 24.432 67.0856 24.432C65.7576 24.432 64.5336 24.224 63.4136 23.808C62.2936 23.392 61.3256 22.8 60.5096 22.032C59.6936 21.248 59.0536 20.304 58.5896 19.2C58.1416 18.096 57.9176 16.864 57.9176 15.504C57.9176 14.144 58.1416 12.912 58.5896 11.808C59.0536 10.704 59.6936 9.768 60.5096 9C61.3256 8.216 62.2936 7.616 63.4136 7.2C64.5336 6.784 65.7576 6.576 67.0856 6.576C68.4456 6.576 69.6936 6.744 70.8296 7.08C71.9816 7.4 72.9896 7.96 73.8536 8.76L71.2136 11.64C70.7016 11.112 70.1256 10.712 69.4856 10.44C68.8456 10.168 68.0456 10.032 67.0856 10.032C66.2856 10.032 65.5576 10.168 64.9016 10.44C64.2616 10.712 63.7096 11.096 63.2456 11.592C62.7816 12.072 62.4216 12.648 62.1656 13.32C61.9256 13.992 61.8056 14.72 61.8056 15.504C61.8056 16.304 61.9256 17.04 62.1656 17.712C62.4216 18.368 62.7816 18.944 63.2456 19.44C63.7096 19.92 64.2616 20.296 64.9016 20.568C65.5576 20.84 66.2856 20.976 67.0856 20.976C67.9016 20.976 68.6056 20.888 69.1976 20.712C69.7896 20.52 70.2616 20.328 70.6136 20.136V17.376H67.5656V13.92H74.2136V22.8ZM118.59 23.016C118.59 25.224 118.03 26.896 116.91 28.032C115.806 29.184 114.118 29.76 111.846 29.76C110.806 29.76 109.782 29.64 108.774 29.4C107.766 29.176 106.838 28.728 105.99 28.056L107.982 25.08C108.542 25.544 109.126 25.912 109.734 26.184C110.358 26.456 111.038 26.592 111.774 26.592C112.878 26.592 113.686 26.32 114.198 25.776C114.726 25.248 114.99 24.568 114.99 23.736V22.608H114.942C114.526 23.168 114.006 23.568 113.382 23.808C112.774 24.032 112.198 24.144 111.654 24.144C110.79 24.144 110.006 24 109.302 23.712C108.598 23.408 107.99 22.992 107.478 22.464C106.982 21.92 106.598 21.28 106.326 20.544C106.054 19.808 105.918 19 105.918 18.12C105.918 17.352 106.038 16.6 106.278 15.864C106.534 15.128 106.886 14.48 107.334 13.92C107.798 13.36 108.358 12.912 109.014 12.576C109.67 12.224 110.414 12.048 111.246 12.048C111.758 12.048 112.222 12.104 112.638 12.216C113.07 12.328 113.454 12.472 113.79 12.648C114.126 12.824 114.414 13.024 114.654 13.248C114.894 13.456 115.086 13.664 115.23 13.872H115.278V12.336H118.59V23.016ZM109.518 18.096C109.518 18.48 109.59 18.848 109.734 19.2C109.878 19.536 110.078 19.84 110.334 20.112C110.606 20.368 110.91 20.576 111.246 20.736C111.598 20.896 111.982 20.976 112.398 20.976C112.798 20.976 113.174 20.896 113.526 20.736C113.878 20.576 114.182 20.368 114.438 20.112C114.71 19.84 114.918 19.536 115.062 19.2C115.206 18.848 115.278 18.48 115.278 18.096C115.278 17.712 115.206 17.352 115.062 17.016C114.918 16.664 114.71 16.36 114.438 16.104C114.182 15.832 113.878 15.616 113.526 15.456C113.174 15.296 112.798 15.216 112.398 15.216C111.982 15.216 111.598 15.296 111.246 15.456C110.91 15.616 110.606 15.832 110.334 16.104C110.078 16.36 109.878 16.664 109.734 17.016C109.59 17.352 109.518 17.712 109.518 18.096Z" fill="#4285F4"/>
<path d="M76.6213 18.168C76.6213 17.24 76.7893 16.4 77.1253 15.648C77.4613 14.896 77.9173 14.256 78.4933 13.728C79.0853 13.184 79.7733 12.768 80.5573 12.48C81.3573 12.192 82.2053 12.048 83.1013 12.048C83.9973 12.048 84.8373 12.192 85.6213 12.48C86.4213 12.768 87.1093 13.184 87.6853 13.728C88.2773 14.256 88.7413 14.896 89.0773 15.648C89.4133 16.4 89.5813 17.24 89.5813 18.168C89.5813 19.096 89.4133 19.936 89.0773 20.688C88.7413 21.44 88.2773 22.088 87.6853 22.632C87.1093 23.16 86.4213 23.568 85.6213 23.856C84.8373 24.144 83.9973 24.288 83.1013 24.288C82.2053 24.288 81.3573 24.144 80.5573 23.856C79.7733 23.568 79.0853 23.16 78.4933 22.632C77.9173 22.088 77.4613 21.44 77.1253 20.688C76.7893 19.936 76.6213 19.096 76.6213 18.168ZM80.2213 18.168C80.2213 19.048 80.4693 19.76 80.9653 20.304C81.4773 20.848 82.1893 21.12 83.1013 21.12C84.0133 21.12 84.7173 20.848 85.2133 20.304C85.7253 19.76 85.9813 19.048 85.9813 18.168C85.9813 17.288 85.7253 16.576 85.2133 16.032C84.7173 15.488 84.0133 15.216 83.1013 15.216C82.1893 15.216 81.4773 15.488 80.9653 16.032C80.4693 16.576 80.2213 17.288 80.2213 18.168ZM138.742 21.984C138.166 22.72 137.438 23.288 136.558 23.688C135.678 24.088 134.766 24.288 133.822 24.288C132.926 24.288 132.078 24.144 131.278 23.856C130.494 23.568 129.806 23.16 129.214 22.632C128.638 22.088 128.182 21.44 127.846 20.688C127.51 19.936 127.342 19.096 127.342 18.168C127.342 17.24 127.51 16.4 127.846 15.648C128.182 14.896 128.638 14.256 129.214 13.728C129.806 13.184 130.494 12.768 131.278 12.48C132.078 12.192 132.926 12.048 133.822 12.048C134.654 12.048 135.406 12.192 136.078 12.48C136.766 12.768 137.342 13.184 137.806 13.728C138.286 14.256 138.654 14.896 138.91 15.648C139.166 16.4 139.294 17.24 139.294 18.168V19.296H130.942C131.086 19.984 131.398 20.536 131.878 20.952C132.358 21.352 132.95 21.552 133.654 21.552C134.246 21.552 134.742 21.424 135.142 21.168C135.558 20.896 135.918 20.552 136.222 20.136L138.742 21.984ZM135.694 16.848C135.71 16.24 135.51 15.72 135.094 15.288C134.678 14.856 134.142 14.64 133.486 14.64C133.086 14.64 132.734 14.704 132.43 14.832C132.126 14.96 131.862 15.128 131.638 15.336C131.43 15.528 131.262 15.76 131.134 16.032C131.022 16.288 130.958 16.56 130.942 16.848H135.694Z" fill="#EA4335"/>
<path d="M91.2697 18.168C91.2697 17.24 91.4377 16.4 91.7737 15.648C92.1097 14.896 92.5657 14.256 93.1417 13.728C93.7337 13.184 94.4217 12.768 95.2057 12.48C96.0057 12.192 96.8537 12.048 97.7497 12.048C98.6457 12.048 99.4857 12.192 100.27 12.48C101.07 12.768 101.758 13.184 102.334 13.728C102.926 14.256 103.39 14.896 103.726 15.648C104.062 16.4 104.23 17.24 104.23 18.168C104.23 19.096 104.062 19.936 103.726 20.688C103.39 21.44 102.926 22.088 102.334 22.632C101.758 23.16 101.07 23.568 100.27 23.856C99.4857 24.144 98.6457 24.288 97.7497 24.288C96.8537 24.288 96.0057 24.144 95.2057 23.856C94.4217 23.568 93.7337 23.16 93.1417 22.632C92.5657 22.088 92.1097 21.44 91.7737 20.688C91.4377 19.936 91.2697 19.096 91.2697 18.168ZM94.8697 18.168C94.8697 19.048 95.1177 19.76 95.6137 20.304C96.1257 20.848 96.8377 21.12 97.7497 21.12C98.6617 21.12 99.3657 20.848 99.8617 20.304C100.374 19.76 100.63 19.048 100.63 18.168C100.63 17.288 100.374 16.576 99.8617 16.032C99.3657 15.488 98.6617 15.216 97.7497 15.216C96.8377 15.216 96.1257 15.488 95.6137 16.032C95.1177 16.576 94.8697 17.288 94.8697 18.168Z" fill="#FBBC05"/>
<path d="M121.515 5.856H125.115V24H121.515V5.856Z" fill="#34A853"/>
<path d="M31.6888 12.8664H30.4V12.8H16V19.2H25.0424C23.7232 22.9256 20.1784 25.6 16 25.6C10.6984 25.6 6.4 21.3016 6.4 16C6.4 10.6984 10.6984 6.4 16 6.4C18.4472 6.4 20.6736 7.3232 22.3688 8.8312L26.8944 4.3056C24.0368 1.6424 20.2144 0 16 0C7.164 0 0 7.164 0 16C0 24.836 7.164 32 16 32C24.836 32 32 24.836 32 16C32 14.9272 31.8896 13.88 31.6888 12.8664Z" fill="#FFC107"/>
<path d="M1.8457 8.5528L7.1025 12.408C8.5249 8.8864 11.9697 6.4 16.0009 6.4C18.4481 6.4 20.6745 7.3232 22.3697 8.8312L26.8953 4.3056C24.0377 1.6424 20.2153 0 16.0009 0C9.8553 0 4.5257 3.4696 1.8457 8.5528Z" fill="#FF3D00"/>
<path d="M15.9999 32C20.1327 32 23.8879 30.4184 26.7271 27.8464L21.7751 23.656C20.1147 24.9187 18.0858 25.6016 15.9999 25.6C11.8383 25.6 8.30466 22.9464 6.97346 19.2432L1.75586 23.2632C4.40386 28.4448 9.78146 32 15.9999 32Z" fill="#4CAF50"/>
<path d="M31.6888 12.8662H30.4V12.7998H16V19.1998H25.0424C24.4114 20.9729 23.2747 22.5223 21.7728 23.6566L21.7752 23.655L26.7272 27.8454C26.3768 28.1638 32 23.9998 32 15.9998C32 14.927 31.8896 13.8798 31.6888 12.8662Z" fill="#1976D2"/>
</svg>
