<svg width="1372" height="358" viewBox="0 0 1372 358" fill="none" xmlns="http://www.w3.org/2000/svg">
<rect width="1372" height="358" fill="#CDBE78" fill-opacity="0.06"/>
<rect x="0.5" y="0.5" width="1371" height="357" stroke="#066163" stroke-opacity="0.06"/>
<path d="M89 160.113L92.3677 170.74H103.266L94.4491 177.308L97.8168 187.936L89 181.368L80.1832 187.936L83.5509 177.308L74.7342 170.74H85.6323L89 160.113Z" fill="#CDBE78"/>
<path d="M920 306L923.368 316.628H934.266L925.449 323.196L928.817 333.823L920 327.255L911.183 333.823L914.551 323.196L905.734 316.628H916.632L920 306Z" fill="#066163"/>
<path d="M270 27L273.368 37.6275H284.266L275.449 44.1957L278.817 54.8232L270 48.255L261.183 54.8232L264.551 44.1957L255.734 37.6275H266.632L270 27Z" fill="#CDBE78"/>
<path d="M818 12L821.368 22.6275H832.266L823.449 29.1957L826.817 39.8232L818 33.255L809.183 39.8232L812.551 29.1957L803.734 22.6275H814.632L818 12Z" fill="#066163"/>
<path d="M90 42.5916L94.9393 58.1241H110.923L97.992 67.7237L102.931 83.2562L90 73.6566L77.0687 83.2562L82.008 67.7237L69.0768 58.1241H85.0607L90 42.5916Z" fill="#066163"/>
<path d="M1285 291.042L1289.94 306.575H1305.92L1292.99 316.174L1297.93 331.707L1285 322.107L1272.07 331.707L1277.01 316.174L1264.08 306.575H1280.06L1285 291.042Z" fill="#066163"/>
<path d="M1285 42.5916L1289.94 58.1241H1305.92L1292.99 67.7237L1297.93 83.2562L1285 73.6566L1272.07 83.2562L1277.01 67.7237L1264.08 58.1241H1280.06L1285 42.5916Z" fill="#066163"/>
<ellipse cx="1269.5" cy="175.493" rx="6.5" ry="7.49296" fill="#CDBE78"/>
<ellipse cx="552.5" cy="273.296" rx="11.5" ry="9.07042" fill="#066163"/>
<ellipse cx="1025.5" cy="199.155" rx="11.5" ry="9.07042" fill="#066163"/>
<ellipse cx="859.5" cy="291.437" rx="6.5" ry="7.49296" fill="#CDBE78"/>
<ellipse cx="1019.5" cy="131.493" rx="6.5" ry="7.49296" fill="#CDBE78"/>
<ellipse cx="74.5" cy="298.535" rx="6.5" ry="7.49296" fill="#CDBE78"/>
<ellipse cx="299.5" cy="215.718" rx="6.5" ry="7.49296" fill="#CDBE78"/>
</svg>
